<?xml version="1.0" standalone="no"?>
<!DOCTYPE svg PUBLIC "-//W3C//DTD SVG 20010904//EN"
 "http://www.w3.org/TR/2001/REC-SVG-20010904/DTD/svg10.dtd">
<svg version="1.0" xmlns="http://www.w3.org/2000/svg"
 width="600.000000pt" height="400.000000pt" viewBox="0 0 600.000000 400.000000"
 preserveAspectRatio="xMidYMid meet">

<g transform="translate(0.000000,400.000000) scale(0.100000,-0.100000)"
fill="#000000" stroke="none">
<path d="M5615 2780 c3 -6 1 -10 -4 -10 -6 0 -11 -8 -11 -19 0 -20 34 -31 96
-31 19 0 34 -4 34 -10 0 -6 34 -10 83 -10 71 0 85 -3 97 -20 10 -14 26 -20 52
-20 l38 0 0 58 0 59 -32 0 c-18 0 -106 3 -196 7 -106 4 -161 2 -157 -4z"/>
<path d="M560 2769 c-79 -13 -391 -27 -483 -21 l-77 5 0 -1377 0 -1376 3000 0
3000 0 0 1130 c0 1048 -1 1131 -17 1137 -9 4 -32 -3 -53 -14 -36 -21 -36 -21
-48 -2 -16 24 -68 26 -83 2 -9 -15 -24 -18 -84 -17 -40 1 -76 4 -81 7 -5 3
-46 11 -92 17 -73 11 -85 11 -101 -4 -10 -9 -29 -16 -44 -16 -14 0 -37 -4 -51
-10 -17 -6 -36 -6 -56 2 -23 8 -35 7 -43 -1 -6 -6 -40 -11 -74 -11 -40 0 -76
-6 -95 -16 -25 -13 -39 -14 -62 -6 -42 13 -133 15 -141 3 -3 -6 -19 -8 -36 -4
-25 5 -31 2 -36 -15 -4 -16 -16 -22 -55 -27 -50 -7 -60 -3 -71 29 -6 17 -37
-3 -37 -24 0 -14 -5 -19 -17 -16 -36 7 -53 19 -53 38 0 14 -6 19 -22 16 -13
-2 -23 -10 -23 -18 0 -18 -21 -33 -35 -25 -6 3 -10 1 -10 -5 0 -7 -12 -9 -34
-5 -28 6 -34 3 -38 -13 -4 -14 -16 -21 -42 -24 -28 -3 -35 -1 -31 10 9 25 -14
52 -45 52 -16 0 -31 -4 -35 -9 -5 -10 -53 -6 -111 9 -20 5 -45 3 -70 -6 -47
-17 -79 -18 -106 -3 -17 9 -25 6 -53 -21 -25 -24 -39 -31 -52 -25 -28 11 -73
14 -73 4 0 -15 -63 -10 -95 7 -51 27 -94 29 -117 5 -16 -18 -26 -20 -56 -15
-20 4 -46 13 -56 20 -22 15 -46 3 -46 -23 0 -8 -5 -11 -10 -8 -6 3 -22 -3 -36
-14 -26 -20 -47 -19 -73 6 -22 23 -65 12 -71 -17 -12 -60 -15 -61 -125 -43
-102 16 -252 18 -382 7 -68 -6 -201 4 -175 13 25 9 11 32 -25 42 -50 14 -69
14 -101 -3 -56 -28 -69 -29 -76 -1 -7 27 -48 44 -69 27 -25 -20 -66 -23 -75
-6 -7 13 -16 15 -38 9 -40 -12 -115 -6 -139 11 -25 18 -59 18 -117 0 -41 -12
-46 -12 -56 4 -11 18 -14 18 -212 6 -25 -1 -43 5 -62 22 -21 19 -34 23 -56 19
-16 -3 -32 -3 -35 0 -4 3 -41 7 -84 8 -47 2 -90 9 -108 19 -19 10 -33 12 -39
6 -6 -6 -18 -10 -28 -10 -9 0 -25 -10 -34 -23 l-18 -23 -25 23 c-13 13 -35 26
-48 30 -30 7 -77 -13 -67 -29 5 -8 0 -9 -17 -3 -13 5 -63 10 -111 11 -79 3
-89 1 -98 -17 -6 -11 -15 -17 -20 -14 -6 3 -21 -5 -35 -19 -22 -22 -23 -27
-10 -40 13 -13 11 -15 -16 -21 -17 -4 -40 -16 -52 -28 l-20 -20 5 21 c4 12 2
20 -2 17 -5 -3 -11 -22 -15 -43 l-6 -38 -58 0 c-51 1 -63 5 -102 37 -24 20
-61 39 -81 43 -28 5 -38 12 -38 25 0 21 -57 38 -74 21 -14 -14 -26 -12 -26 5
0 8 6 15 13 15 30 1 -42 29 -75 30 -27 0 -38 4 -38 15 0 8 -4 15 -10 15 -5 0
-10 9 -10 20 0 13 7 20 19 20 11 0 22 6 24 13 4 9 8 9 15 -2 20 -28 42 12 42
73 0 49 2 56 20 56 11 0 20 5 20 10 0 6 9 10 20 10 11 0 20 5 20 10 0 6 18 10
40 10 22 0 40 5 40 10 0 6 9 10 20 10 11 0 20 5 20 10 0 6 14 10 30 10 17 0
30 5 30 10 0 6 30 10 70 10 40 0 70 4 70 10 0 6 27 10 60 10 33 0 60 4 60 10
0 6 33 10 80 10 62 0 80 3 80 14 0 11 22 16 88 21 66 6 91 12 103 26 10 12 30
19 53 19 29 0 36 4 36 20 0 11 -4 20 -10 20 -20 0 -10 28 12 33 35 10 19 15
-67 21 -100 7 -124 11 -202 29 -35 8 -60 11 -57 6 3 -5 -10 -9 -28 -8 -30 1
-31 2 -8 8 23 6 23 8 6 14 -21 8 -130 26 -191 32 -22 2 -65 -1 -95 -6z m-440
-429 c0 -11 -4 -20 -10 -20 -5 0 -10 9 -10 20 0 11 5 20 10 20 6 0 10 -9 10
-20z m95 -239 c-3 -6 -11 -11 -17 -11 -6 0 -6 6 2 15 14 17 26 13 15 -4z"/>
<path d="M1258 2683 c7 -3 16 -2 19 1 4 3 -2 6 -13 5 -11 0 -14 -3 -6 -6z"/>
</g>
</svg>
